<svg width="40" height="40" viewBox="0 0 40 40" xmlns="http://www.w3.org/2000/svg">
<path d="M20.25 9C18.7666 9 17.3166 9.43987 16.0832 10.264C14.8499 11.0881 13.8886 12.2594 13.3209 13.6299C12.7532 15.0003 12.6047 16.5083 12.8941 17.9632C13.1835 19.418 13.8978 20.7544 14.9467 21.8033C15.9956 22.8522 17.332 23.5665 18.7868 23.8559C20.2417 24.1453 21.7497 23.9967 23.1201 23.4291C24.4906 22.8614 25.6619 21.9001 26.486 20.6668C27.3101 19.4334 27.75 17.9834 27.75 16.5C27.75 14.5109 26.9598 12.6032 25.5533 11.1967C24.1468 9.79018 22.2391 9 20.25 9ZM20.25 21C19.36 21 18.49 20.7361 17.7499 20.2416C17.0099 19.7471 16.4331 19.0443 16.0925 18.2221C15.752 17.3998 15.6628 16.495 15.8365 15.6221C16.0101 14.7492 16.4387 13.9474 17.068 13.318C17.6974 12.6887 18.4992 12.2601 19.3721 12.0865C20.245 11.9128 21.1498 12.0019 21.9721 12.3425C22.7943 12.6831 23.4971 13.2599 23.9916 13.9999C24.4861 14.74 24.75 15.61 24.75 16.5C24.7488 17.6931 24.2743 18.837 23.4307 19.6807C22.587 20.5243 21.4431 20.9988 20.25 21Z"/>
<path d="M20 0C16.0444 0 12.1776 1.17298 8.8886 3.37061C5.59962 5.56823 3.03617 8.69181 1.52242 12.3463C0.00866566 16.0009 -0.387401 20.0222 0.384303 23.9018C1.15601 27.7814 3.06082 31.3451 5.85787 34.1421C8.65492 36.9392 12.2186 38.844 16.0982 39.6157C19.9778 40.3874 23.9991 39.9913 27.6537 38.4776C31.3082 36.9638 34.4318 34.4004 36.6294 31.1114C38.827 27.8224 40 23.9556 40 20C39.9939 14.6975 37.8849 9.61396 34.1355 5.86454C30.386 2.11513 25.3025 0.0060496 20 0ZM11.4286 34.8243V32.8571C11.4297 31.7208 11.8816 30.6314 12.6851 29.8279C13.4886 29.0245 14.578 28.5726 15.7143 28.5714H24.2857C25.422 28.5726 26.5114 29.0245 27.3149 29.8279C28.1184 30.6314 28.5703 31.7208 28.5714 32.8571V34.8243C25.9702 36.3431 23.0122 37.1435 20 37.1435C16.9878 37.1435 14.0298 36.3431 11.4286 34.8243ZM31.4171 32.7514C31.3887 30.8776 30.6252 29.09 29.2913 27.7737C27.9574 26.4574 26.1597 25.7178 24.2857 25.7143H15.7143C13.8403 25.7178 12.0426 26.4574 10.7087 27.7737C9.37478 29.09 8.61133 30.8776 8.58286 32.7514C5.99224 30.4382 4.16534 27.3927 3.34406 24.0181C2.52278 20.6435 2.74586 17.0991 3.98378 13.8541C5.22169 10.6091 7.41604 7.81667 10.2763 5.84652C13.1365 3.87638 16.5276 2.82146 20.0007 2.82146C23.4738 2.82146 26.865 3.87638 29.7252 5.84652C32.5854 7.81667 34.7797 10.6091 36.0177 13.8541C37.2556 17.0991 37.4787 20.6435 36.6574 24.0181C35.8361 27.3927 34.0092 30.4382 31.4186 32.7514H31.4171Z"/>
</svg>
